<?xml version="1.0" encoding="UTF-8" standalone="no"?>
<!-- Created with Inkscape (http://www.inkscape.org/) -->

<svg
   width="250"
   height="250"
   viewBox="0 0 66.145832 66.145833"
   version="1.1"
   id="svg2440"
   inkscape:version="1.2.2 (732a01da63, 2022-12-09)"
   sodipodi:docname="istina.svg"
   xmlns:inkscape="http://www.inkscape.org/namespaces/inkscape"
   xmlns:sodipodi="http://sodipodi.sourceforge.net/DTD/sodipodi-0.dtd"
   xmlns="http://www.w3.org/2000/svg"
   xmlns:svg="http://www.w3.org/2000/svg">
  <sodipodi:namedview
     id="namedview2442"
     pagecolor="#ffffff"
     bordercolor="#000000"
     borderopacity="0.25"
     inkscape:showpageshadow="2"
     inkscape:pageopacity="0.0"
     inkscape:pagecheckerboard="0"
     inkscape:deskcolor="#d1d1d1"
     inkscape:document-units="mm"
     showgrid="false"
     inkscape:zoom="0.84096521"
     inkscape:cx="145.66596"
     inkscape:cy="265.76605"
     inkscape:window-width="1260"
     inkscape:window-height="770"
     inkscape:window-x="-6"
     inkscape:window-y="-6"
     inkscape:window-maximized="1"
     inkscape:current-layer="layer1" />
  <defs
     id="defs2437" />
  <g
     inkscape:label="Слой 1"
     inkscape:groupmode="layer"
     id="layer1">
    <path
       class="st0"
       d="M 30.428811,6.409165 C 30.322978,6.303332 30.375891,6.144582 30.534644,6.118124 L 31.910478,5.85354 c 0.05292,0 0.105833,-0.05292 0.132291,-0.07938 l 0.661459,-1.217083 c 0.05292,-0.132292 0.238125,-0.132292 0.3175,0 l 0.687916,1.217083 c 0.02646,0.05292 0.07937,0.07938 0.132292,0.07938 l 1.375833,0.264584 c 0.132292,0.02646 0.185209,0.185208 0.105834,0.291041 l -0.9525,1.031875 c -0.02646,0.02646 -0.05292,0.07937 -0.05292,0.132292 l 0.185208,1.375833 C 34.529851,9.081457 34.3711,9.18729 34.265266,9.134374 l -1.27,-0.582084 c -0.05292,-0.02646 -0.105833,-0.02646 -0.15875,0 l -1.27,0.608542 c -0.132291,0.05292 -0.264583,-0.05292 -0.238125,-0.185208 l 0.15875,-1.375834 c 0,-0.05292 0,-0.105833 -0.05292,-0.132291 z M 15.268187,46.96979 c -0.07937,-0.396875 -0.396875,-0.661459 -0.846666,-0.714375 0.211666,-0.47625 0.555625,-1.42875 0.07937,-2.116667 -0.396875,-0.582083 -1.164167,-0.449792 -1.561042,-0.3175 -0.132292,-0.291042 -0.396875,-0.873125 -0.873125,-1.11125 -0.3175,-0.15875 -0.661458,-0.185208 -1.005417,-0.02646 -0.343958,0.15875 -0.608541,0.396875 -0.714375,0.767291 -0.185208,0.529167 0,1.137709 0.105834,1.455209 -0.343959,0.185208 -1.0054167,0.661458 -0.8995837,1.375833 0.132292,0.846667 1.0054167,1.27 1.4552087,1.455208 -0.264584,0.370417 -0.3175,0.79375 -0.132292,1.137709 0.264583,0.47625 0.899583,0.661458 1.217083,0.767291 0,0 0.02646,0 0.02646,0 0,0.185209 0.899583,1.931459 2.090208,1.42875 1.190625,-0.502708 0.740833,-2.460625 0.608542,-2.566458 0,0 0,-0.02646 0,-0.02646 0.264583,-0.370417 0.582083,-0.9525 0.449791,-1.508125 z m 14.578541,-17.78 -0.05292,-6.244167 h 1.561042 c 0,0 -0.02646,-3.227916 -0.02646,-3.942291 0,-0.899584 1.217084,-1.084792 1.217084,-1.084792 l -0.264584,-1.27 0.47625,-6.164791 c 0,-0.05292 0.05292,-0.07937 0.07937,-0.07937 0.05292,0 0.07937,0.02646 0.07937,0.07937 l 0.555625,6.164791 -0.264583,1.27 c 0,0 1.217083,0.15875 1.217083,1.084792 0,0.714375 0.02646,3.942291 0.02646,3.942291 h 1.561041 l 0.02646,6.270625 3.148541,1.534584 0.05292,7.831666 7.831666,-0.05292 1.561042,-1.561042 -0.02646,-3.122083 1.561041,-1.561042 h 1.561042 l 1.561046,1.561042 0.0529,7.249583 c -0.0529,0.02646 -0.0794,0.05292 -0.13229,0.07937 -0.39687,0.211666 -0.71437,0.529166 -0.978958,0.846666 -0.846666,0.05292 -1.561041,0.47625 -2.010833,1.164167 -0.423333,0.661458 -0.555625,1.455208 -0.423333,2.301875 -0.238125,0.291042 -0.423334,0.635 -0.502709,1.031875 -0.07937,0.3175 -0.07937,0.608542 -0.05292,0.899583 -0.185209,-0.07937 -0.396875,-0.132291 -0.582084,-0.15875 l -0.02646,-5.582708 h -1.561042 l 0.02646,5.767917 c -0.370417,0.15875 -0.687917,0.396875 -0.926042,0.661458 -0.05292,0 -0.105833,0 -0.15875,0 -0.15875,0 -0.3175,0.02646 -0.449792,0.05292 l -0.02646,-6.482292 H 43.97545 l 0.05292,7.408333 c -0.423333,0.555625 -0.661458,1.243542 -0.635,2.010834 l -5.582708,0.02646 v 0 l -0.02646,-6.270625 V 43.292077 H 36.22316 34.609202 v 0 c 0,0 0.79375,-0.449791 1.402291,-2.38125 0.05292,-0.185208 -0.132291,-0.370416 -0.3175,-0.317499 -1.11125,0.423333 -2.619375,-0.740834 -2.619375,-0.740834 0,0 -1.481666,1.164167 -2.619375,0.767292 -0.185208,-0.07937 -0.370416,0.105833 -0.3175,0.3175 0.608542,1.931458 1.42875,2.38125 1.42875,2.38125 v 0 h -1.613958 -1.561042 v 1.561041 l 0.02646,6.270625 -5.582707,0.02646 c 0,-0.767292 -0.211667,-1.455209 -0.661459,-2.010834 l -0.05289,-7.40833 h -1.561043 l 0.02646,6.482292 c -0.15875,-0.02646 -0.291041,-0.02646 -0.449791,-0.02646 -0.05292,0 -0.105834,0 -0.15875,0 -0.264584,-0.264583 -0.582084,-0.502708 -0.9525,-0.661458 l -0.02646,-5.767917 h -1.561041 l 0.02646,5.582709 c -0.185208,0.02646 -0.396875,0.105833 -0.582083,0.185208 0.02646,-0.291042 0.02646,-0.582083 -0.05292,-0.899583 -0.07937,-0.396875 -0.264583,-0.740834 -0.529167,-1.031875 0.132292,-0.846667 0,-1.640417 -0.449791,-2.301875 -0.449792,-0.687917 -1.164167,-1.084792 -2.010834,-1.137709 -0.264583,-0.3175 -0.582083,-0.608541 -0.978958,-0.846666 -0.05292,-0.02646 -0.07937,-0.05292 -0.132292,-0.07937 l -0.05292,-7.249583 1.561041,-1.561042 h 1.561042 l 1.561042,1.561042 0.02646,3.122083 1.561042,1.561042 7.831665,-0.05292 -0.05292,-7.831667 z m -13.731874,7.381875 c 0,-0.608542 -0.502708,-1.11125 -1.137708,-1.11125 -0.608542,0 -1.11125,0.502708 -1.11125,1.137708 0,0.635 0.502708,1.11125 1.137708,1.11125 0.608542,0 1.11125,-0.502708 1.11125,-1.137708 z m 9.154582,12.964583 -0.05292,-7.805208 h -1.561041 l 0.05292,7.831666 z M 49.902144,36.386457 c 0,0.608541 0.502708,1.11125 1.137708,1.11125 0.608542,0 1.11125,-0.502709 1.11125,-1.137709 0,-0.608541 -0.502708,-1.11125 -1.137708,-1.11125 -0.608542,0.02646 -1.11125,0.529167 -1.11125,1.137709 z m -9.04875,5.238749 0.05292,7.831667 h 1.561042 l -0.05292,-7.831667 z m -6.297083,-9.366249 0.02646,6.270625 h 1.561042 l -0.02646,-6.270625 z m -2.989792,-6.217709 c 0.05292,0.661459 0.396875,1.137709 0.714375,1.455209 0.15875,0.15875 0.05292,0.449791 -0.185208,0.449791 h -0.529167 v 1.349375 l 2.69875,-0.02646 v -1.349375 h -0.529166 c -0.238125,0 -0.343959,-0.264583 -0.185209,-0.449792 0.3175,-0.3175 0.661459,-0.79375 0.687917,-1.455208 0.05292,-1.058333 -0.502708,-1.243542 -0.820208,-1.296458 -0.3175,-0.05292 -0.05292,0.370416 0.15875,0.555625 0.211666,0.185208 -0.343959,0.264583 -0.687917,0.264583 -0.343958,0 -0.899583,-0.05292 -0.714375,-0.238125 0.211667,-0.185208 0.47625,-0.635 0.15875,-0.555625 -0.264583,0.05292 -0.820208,0.238125 -0.767292,1.296458 z m -1.719791,6.244167 0.02646,6.270625 H 31.43423 L 31.40777,32.285415 Z M 45.033811,6.303332 c 0.343958,0.873125 0.846666,1.613958 1.296458,2.169583 0.47625,0.555625 0.926042,0.9525 1.164167,1.1377093 0.07937,0.05292 0.185208,0 0.211666,-0.07937 C 47.759022,9.213754 47.811936,8.63167 47.785482,7.890837 47.759022,7.150004 47.626732,6.276879 47.282774,5.403754 46.938816,4.530629 46.436107,3.789795 45.986316,3.23417 45.510066,2.678545 45.060274,2.28167 44.822149,2.096462 c -0.07937,-0.05292 -0.185208,0 -0.211666,0.07938 -0.05292,0.3175 -0.105834,0.899583 -0.07938,1.640417 0.02646,0.714375 0.15875,1.613958 0.502708,2.487083 z M 28.391519,52.68479 37.784228,52.63187 36.223186,51.070828 36.170266,44.85312 h -1.561041 l 0.02646,6.217708 -3.122083,0.02646 -0.02646,-6.217709 h -1.561041 l 0.02646,6.217709 h -0.02646 z M 40.615269,7.202915 c 1.772709,0.820209 3.571875,0.846667 4.180417,0.820209 0.105833,0 0.132292,-0.105834 0.07937,-0.185209 C 44.478181,7.361665 43.261098,6.01229 41.488389,5.21854 39.715681,4.398332 37.916514,4.371874 37.307973,4.398332 c -0.105834,0 -0.132292,0.105833 -0.07937,0.185208 0.396875,0.47625 1.613958,1.825625 3.386666,2.619375 z m 4.418542,2.4077093 C 44.134228,9.398957 43.261103,9.398957 42.546728,9.4783323 c -0.714375,0.07937 -1.296459,0.238125 -1.5875,0.3175 -0.07937,0.02646 -0.105834,0.15875 -0.05292,0.2381247 0.211667,0.211667 0.661458,0.608542 1.27,0.978958 0.608542,0.396875 1.402292,0.767292 2.301875,0.978959 0.899583,0.211666 1.772708,0.211666 2.487083,0.132291 0.714375,-0.07937 1.296458,-0.238125 1.561042,-0.3175 0.07937,-0.02646 0.105833,-0.15875 0.05292,-0.238125 -0.211666,-0.211666 -0.661458,-0.608541 -1.27,-0.978958 C 46.700687,10.192707 45.933395,9.7958323 45.033811,9.6106243 Z M 59.453604,34.375623 c -0.0265,-0.3175 -0.0794,-0.9525 -0.26459,-1.719791 -0.1852,-0.767292 -0.5027,-1.640417 -1.00541,-2.487084 -0.52917,-0.846666 -1.19063,-1.508125 -1.79917,-1.984375 -0.60854,-0.47625 -1.13771,-0.79375 -1.42875,-0.9525 -0.0794,-0.05292 -0.21166,0.02646 -0.21166,0.132292 0.0264,0.3175 0.0794,0.9525 0.26458,1.719792 0.18521,0.767291 0.50271,1.640416 1.00542,2.487083 0.52916,0.846667 1.19062,1.508125 1.79916,1.984375 0.60854,0.47625 1.13771,0.79375 1.42875,0.9525 0.0794,0.02646 0.21167,-0.05292 0.21167,-0.132292 z m -4.7625,-9.181041 c 0.68792,0.635 1.45521,1.031875 2.14312,1.322916 0.66146,0.291042 1.24355,0.423334 1.53459,0.47625 0.0794,0.02646 0.1852,-0.07937 0.15875,-0.185208 -0.10584,-0.291042 -0.3175,-0.846667 -0.66146,-1.508125 -0.37042,-0.635 -0.87313,-1.375833 -1.56104,-1.984375 -0.68792,-0.635 -1.45521,-1.031875 -2.14313,-1.322917 -0.66146,-0.291041 -1.24354,-0.423333 -1.53458,-0.47625 -0.0794,-0.02646 -0.18521,0.07937 -0.158752,0.185209 0.105832,0.291041 0.317502,0.846666 0.661462,1.508125 0.37041,0.635 0.87312,1.349375 1.56104,1.984375 z m 2.93687,17.409583 c 0.10584,-0.3175 0.29105,-0.9525 0.42334,-1.772709 0.10583,-0.820208 0.15875,-1.799166 -0.0265,-2.804583 -0.18521,-1.031875 -0.58208,-1.931458 -0.97896,-2.619375 -0.39687,-0.714375 -0.79375,-1.217083 -1.00542,-1.481666 -0.0529,-0.07938 -0.21166,-0.05292 -0.23812,0.05292 -0.10583,0.3175 -0.29104,0.9525 -0.42333,1.772709 -0.10584,0.820208 -0.15875,1.799166 0.0265,2.804583 0.18521,1.031875 0.58209,1.931458 0.97896,2.619375 0.39688,0.714375 0.79375,1.217083 1.00542,1.481666 0.0529,0.07937 0.18521,0.05292 0.23812,-0.05292 z m -1.08479,3.386666 c 0.10584,-0.714375 -0.55562,-1.164166 -0.89958,-1.375833 0.10583,-0.291042 0.29104,-0.926042 0.10583,-1.455208 -0.10583,-0.343959 -0.37041,-0.608542 -0.71437,-0.740834 -0.37042,-0.15875 -0.68792,-0.132291 -1.00542,0.02646 -0.47625,0.264583 -0.74083,0.820208 -0.87312,1.137708 -0.39688,-0.105833 -1.164172,-0.238125 -1.561047,0.343958 -0.449791,0.714375 -0.105833,1.640417 0.105834,2.116667 -0.423334,0.07938 -0.740834,0.343958 -0.820209,0.740833 -0.132291,0.555625 0.211667,1.137709 0.396875,1.42875 0,0 0,0.02646 0,0.02646 -0.132291,0.132291 -0.555625,2.06375 0.635,2.566458 1.217087,0.502708 2.090207,-1.27 2.090207,-1.455208 0,0 0.0265,0 0.0265,0 0.34396,-0.105834 0.9525,-0.291042 1.21708,-0.767292 0.18521,-0.343958 0.1323,-0.767292 -0.13229,-1.137708 0.44979,-0.185209 1.29646,-0.635 1.42875,-1.455209 z m 3.62479,-10.001249 c -0.44979,0.899583 -0.66146,1.825625 -0.74083,2.619375 -0.10583,0.79375 -0.0794,1.42875 -0.0529,1.772708 0,0.105833 0.13229,0.15875 0.21167,0.105833 0.26458,-0.185208 0.76729,-0.555625 1.32292,-1.11125 0.55562,-0.555625 1.1377,-1.296458 1.5875,-2.196041 0.44979,-0.899584 0.66145,-1.825625 0.74083,-2.619375 0.10583,-0.79375 0.0794,-1.42875 0.0529,-1.772709 0,-0.105833 -0.1323,-0.15875 -0.21167,-0.105833 -0.26458,0.185208 -0.76729,0.555625 -1.32292,1.11125 -0.55562,0.529167 -1.16416,1.27 -1.5875,2.196042 z m 0.10584,-7.196667 c -0.26459,0.926042 -0.29105,1.852083 -0.26459,2.619375 0.0529,0.767292 0.15875,1.375833 0.23813,1.666875 0.0265,0.105833 0.15875,0.132292 0.21166,0.05292 0.21167,-0.211667 0.635,-0.661459 1.05834,-1.296459 0.42333,-0.635 0.84666,-1.42875 1.11125,-2.354791 0.26458,-0.926042 0.29104,-1.852084 0.26458,-2.619375 -0.0529,-0.767292 -0.15875,-1.375834 -0.23812,-1.666875 -0.0265,-0.105834 -0.15875,-0.132292 -0.21167,-0.05292 -0.21167,0.211667 -0.635,0.661458 -1.05833,1.296458 -0.42334,0.608542 -0.84667,1.402292 -1.11125,2.354792 z M 48.949644,13.605832 c -0.899583,-0.211667 -1.799167,-0.185208 -2.513542,-0.105833 -0.740833,0.07937 -1.296458,0.238125 -1.587499,0.343958 -0.07937,0.02646 -0.105834,0.15875 -0.05292,0.238125 0.238125,0.211666 0.687916,0.608541 1.296458,1.005416 0.635,0.396875 1.42875,0.79375 2.328333,0.978959 0.899584,0.211666 1.799167,0.185208 2.513542,0.105833 0.740833,-0.07937 1.296458,-0.238125 1.587508,-0.343958 0.0794,-0.02646 0.10583,-0.15875 0.0529,-0.238125 -0.238126,-0.211667 -0.687918,-0.608542 -1.29646,-1.005417 -0.608541,-0.396875 -1.402291,-0.767291 -2.328333,-0.978958 z m 4.7625,1.799166 c 0.34396,0.661459 0.68792,1.164167 0.87313,1.402292 0.0529,0.07937 0.1852,0.05292 0.23812,-0.02646 0.10583,-0.291042 0.3175,-0.873125 0.44979,-1.613959 0.13229,-0.740833 0.21167,-1.640416 0.0794,-2.592916 -0.13229,-0.9525 -0.44979,-1.799167 -0.79375,-2.460625 -0.34396,-0.661458 -0.68792,-1.164167 -0.87313,-1.402292 -0.0529,-0.07937 -0.18521,-0.05292 -0.23812,0.02646 -0.10584,0.291041 -0.3175,0.8731253 -0.44979,1.613958 -0.1323,0.740833 -0.21167,1.640417 -0.0794,2.592917 0.13229,0.926041 0.44979,1.772708 0.79375,2.460625 z m -3.545417,-3.174999 c 0.423334,0.661458 0.820209,1.11125 1.058334,1.349375 0.07937,0.07937 0.211666,0.02646 0.238125,-0.05292 0.07937,-0.3175 0.238125,-0.926042 0.291041,-1.693333 0.05292,-0.767292 0.05292,-1.719792 -0.185208,-2.672292 -0.238125,-0.9525 -0.661458,-1.772708 -1.084792,-2.434167 -0.423333,-0.661458 -0.820208,-1.11125 -1.058333,-1.349375 -0.07937,-0.07938 -0.211667,-0.02646 -0.238125,0.05292 -0.07937,0.3175 -0.238125,0.926042 -0.291042,1.693333 -0.05292,0.767292 -0.05292,1.719792 0.185209,2.6722923 0.264583,0.9524997 0.687916,1.7727077 1.084791,2.4341667 z m 8.757707,12.356041 c 0.10583,0.740833 0.29104,1.322917 0.39688,1.613958 0.0265,0.07938 0.15875,0.105834 0.21166,0.05292 0.18521,-0.238125 0.55563,-0.714375 0.92604,-1.349375 0.34396,-0.661458 0.71438,-1.481667 0.87313,-2.407708 0.15875,-0.926042 0.13229,-1.825625 0,-2.566459 -0.10583,-0.740833 -0.29104,-1.322916 -0.39688,-1.613958 -0.0264,-0.07938 -0.15875,-0.105833 -0.21166,-0.05292 -0.18521,0.238125 -0.55563,0.714375 -0.92604,1.349375 -0.34396,0.661459 -0.71438,1.481667 -0.87313,2.407709 -0.15875,0.926041 -0.10583,1.825625 0,2.566458 z m -1.34937,-3.704167 c 0.0529,0.07937 0.18521,0.07937 0.23812,0 0.15875,-0.264583 0.42334,-0.79375 0.66146,-1.508125 0.23812,-0.714375 0.42333,-1.561041 0.42333,-2.513541 0,-0.9525 -0.21166,-1.799167 -0.44979,-2.513542 -0.23812,-0.687916 -0.52916,-1.217083 -0.66146,-1.481666 -0.0529,-0.07937 -0.1852,-0.07937 -0.23812,0 -0.15875,0.264583 -0.42333,0.79375 -0.66146,1.508124 -0.23812,0.714375 -0.42333,1.561042 -0.42333,2.513542 0,0.9525 0.21166,1.799167 0.44979,2.513542 0.23812,0.687916 0.50271,1.217083 0.66146,1.481666 z m -6.508753,-3.518958 c -0.714375,-0.05292 -1.296459,0 -1.613959,0.02646 -0.07937,0 -0.132291,0.132292 -0.07937,0.211667 0.185209,0.238125 0.555625,0.714375 1.084792,1.217083 0.529167,0.502709 1.243542,1.031875 2.09021,1.402292 0.84667,0.370417 1.69334,0.529167 2.43417,0.582083 0.71438,0.05292 1.29645,0 1.61396,-0.02646 0.0794,0 0.13229,-0.132292 0.0794,-0.211667 -0.1852,-0.238125 -0.55562,-0.714375 -1.08479,-1.217083 -0.52916,-0.502708 -1.24354,-1.031875 -2.09021,-1.402292 -0.84666,-0.370416 -1.719793,-0.529166 -2.434168,-0.582083 z m -33.893124,-5.3975 c 0.291042,0.07938 0.846667,0.238125 1.5875,0.3175 0.714375,0.07938 1.5875,0.07938 2.487084,-0.15875 0.899583,-0.211666 1.666875,-0.608541 2.275416,-1.005416 0.608541,-0.396875 1.058332,-0.79375 1.269999,-1.005417 0.07937,-0.05292 0.02646,-0.2116667 -0.05292,-0.2381247 -0.291041,-0.07937 -0.846666,-0.238125 -1.587498,-0.3175 -0.714375,-0.07937 -1.5875,-0.07937 -2.487084,0.15875 -0.899583,0.211667 -1.666875,0.6085417 -2.275416,1.0054167 -0.608542,0.396875 -1.058334,0.79375 -1.27,1.005416 -0.05292,0.07938 -0.02646,0.211667 0.05292,0.238125 z m -3.571875,42.888958 c 0.396875,-1.243542 -1.375833,-2.169583 -1.534583,-2.169583 0,0 0,-0.02646 0,-0.02646 -0.132292,-0.343958 -0.343958,-0.978958 -0.846667,-1.243541 -0.343958,-0.185209 -0.740833,-0.132292 -1.084791,0.15875 -0.2116667,-0.47625 -0.7143747,-1.349375 -1.5345837,-1.455209 -0.687916,-0.105833 -1.11125,0.582084 -1.27,0.9525 -0.3175,-0.105833 -0.926041,-0.264583 -1.42875,-0.07937 -0.343958,0.132292 -0.555625,0.370417 -0.6879156,0.740834 -0.132292,0.370416 -0.07937,0.714375 0.1058326,1.031875 0.291042,0.47625 0.873125,0.740833 1.164167,0.873125 -0.07937,0.396875 -0.15875,1.190625 0.449791,1.5875 0.714375,0.449791 1.613959,0.105833 2.06375,-0.15875 0.105834,0.449791 0.396875,0.740833 0.767292,0.846666 0.5556247,0.105834 1.0847917,-0.238125 1.3758327,-0.423333 0,0 0.02646,0 0.02646,0 0.105833,0.105833 2.037291,0.608542 2.434166,-0.635 z M 4.3938127,32.153123 c 0.423334,0.635 0.846667,1.058334 1.0847916,1.296459 0.07937,0.07937 0.211667,0.02646 0.211667,-0.07937 0.07937,-0.3175 0.185208,-0.926042 0.238125,-1.666875 0.02646,-0.767292 -0.02646,-1.666875 -0.291042,-2.619375 -0.264583,-0.9525 -0.7143746,-1.719792 -1.1377076,-2.354792 -0.423334,-0.635 -0.846667,-1.058333 -1.084792,-1.296458 -0.07937,-0.07938 -0.211667,-0.02646 -0.211667,0.07937 -0.07937,0.3175 -0.185208,0.926041 -0.238125,1.666875 -0.02646,0.767291 0.02646,1.666875 0.291042,2.619375 0.264583,0.926041 0.714375,1.74625 1.137708,2.354791 z m 14.4727083,26.035 c 0,-0.02646 0,-0.02646 0,0 -0.211667,-0.3175 -0.555625,-0.899583 -1.084792,-1.058333 -0.370417,-0.105834 -0.767292,0.02646 -1.031875,0.370416 -0.3175,-0.423333 -0.978958,-1.164166 -1.799167,-1.11125 -0.714375,0.05292 -0.9525,0.79375 -1.031875,1.190625 -0.3175,-0.05292 -0.9525,-0.07937 -1.402291,0.211667 -0.291042,0.185208 -0.47625,0.47625 -0.502709,0.873125 -0.05292,0.396875 0.05292,0.714375 0.3175,0.978958 0.370417,0.423334 1.005417,0.555625 1.322917,0.608542 0,0.396875 0.07937,1.217083 0.767292,1.455208 0.79375,0.291042 1.5875,-0.238125 1.984375,-0.582083 0.185208,0.423333 0.529166,0.661458 0.926041,0.661458 0.555625,0 1.005417,-0.449791 1.27,-0.687916 0,0 0,0 0.02646,-0.02646 0.15875,0.07937 2.116666,0.15875 2.248958,-1.137708 0.07937,-1.27 -1.852083,-1.799167 -2.010833,-1.74625 z M 3.5206877,37.497707 c 0.449792,0.899583 1.058334,1.640416 1.613959,2.196041 0.5556246,0.555625 1.0847906,0.926042 1.3493746,1.11125 0.07937,0.05292 0.211666,0 0.211666,-0.105833 0.02646,-0.343958 0.02646,-0.978958 -0.07937,-1.772708 -0.105833,-0.79375 -0.3175,-1.719792 -0.767291,-2.619375 -0.449792,-0.899584 -1.0583336,-1.640417 -1.6139586,-2.196042 -0.555625,-0.555625 -1.084791,-0.926042 -1.349375,-1.11125 -0.07938,-0.05292 -0.211666,0 -0.211666,0.105833 -0.02646,0.343959 -0.02646,0.978959 0.07937,1.772709 0.105833,0.767291 0.3175,1.719791 0.767291,2.619375 z m 3.3866666,9.816041 c 0.740833,0.423333 1.402292,0.687917 1.719792,0.79375 0.105833,0.02646 0.211666,-0.07938 0.211666,-0.185208 -0.07938,-0.343959 -0.238125,-1.031875 -0.582083,-1.852084 -0.3175,-0.820208 -0.820208,-1.719791 -1.534583,-2.566458 -0.714375,-0.820208 -1.5610416,-1.42875 -2.3018746,-1.878542 -0.740834,-0.449791 -1.402292,-0.687916 -1.719792,-0.79375 -0.105833,-0.02646 -0.211667,0.07937 -0.211667,0.185209 0.07937,0.343958 0.238125,1.031875 0.582084,1.852083 0.3175,0.820208 0.820208,1.719792 1.534583,2.566458 0.7143746,0.846667 1.5610416,1.42875 2.3018746,1.878542 z m 14.8695827,6.985 c 0.132292,-0.343958 0.396875,-0.9525 0.185209,-1.481667 -0.132292,-0.370416 -0.47625,-0.608541 -0.926042,-0.608541 0.15875,-0.502709 0.370417,-1.481667 -0.15875,-2.116667 -0.449792,-0.529167 -1.217083,-0.291042 -1.5875,-0.132292 -0.15875,-0.291041 -0.502708,-0.820208 -1.005417,-1.005416 -0.3175,-0.132292 -0.661458,-0.105834 -1.005416,0.105833 -0.343959,0.185208 -0.555625,0.47625 -0.608542,0.846667 -0.105833,0.555625 0.132292,1.137708 0.291042,1.42875 -0.3175,0.238125 -0.926042,0.79375 -0.714375,1.481666 0.238125,0.820209 1.137708,1.137709 1.640416,1.27 -0.211666,0.396875 -0.211666,0.820209 0.02646,1.137709 0.3175,0.449791 0.9525,0.555625 1.296458,0.608541 0,0 0.02646,0 0.02646,0 0.02646,0.185209 1.11125,1.799167 2.248959,1.164167 1.11125,-0.687917 0.423333,-2.566458 0.291041,-2.69875 0,0 0,0 0,0 z m 19.102916,-0.661458 3.254375,8.519583 c -3.413125,1.296458 -7.117292,2.037292 -10.980209,2.037292 -3.862916,0.02646 -7.593541,-0.661459 -11.006665,-1.931459 l 3.14854,-8.546041 c 2.434167,0.899583 5.053542,1.375833 7.805209,1.375833 2.725208,-0.02646 5.344583,-0.529167 7.77875,-1.455208 z M 63.369434,40.513957 c -0.34396,0.132291 -0.97896,0.370416 -1.71979,0.820208 -0.74083,0.449791 -1.5875,1.058333 -2.27542,1.905 -0.71437,0.846666 -1.19062,1.772708 -1.50812,2.592916 -0.3175,0.820209 -0.47625,1.508125 -0.55563,1.852084 -0.0265,0.105833 0.10584,0.211666 0.21167,0.185208 0.34396,-0.132292 0.97896,-0.370417 1.71979,-0.820208 0.74083,-0.449792 1.5875,-1.058334 2.27542,-1.905 0.71437,-0.846667 1.19062,-1.772709 1.50812,-2.592917 0.3175,-0.820208 0.47625,-1.508125 0.55563,-1.852083 0,-0.132292 -0.10584,-0.238125 -0.21167,-0.185208 z m -3.09562,10.186458 c -0.50271,-0.185209 -1.11125,-0.02646 -1.42875,0.105833 -0.15875,-0.370417 -0.58209,-1.031875 -1.27,-0.926042 -0.82021,0.132292 -1.32292,1.005417 -1.50813,1.481667 -0.34396,-0.264583 -0.74083,-0.3175 -1.11125,-0.132292 -0.50271,0.264584 -0.71437,0.899584 -0.82021,1.243542 0,0 0,0.02646 0,0.02646 -0.15875,0 -1.931455,0.926042 -1.50812,2.169584 0.42333,1.243541 2.32833,0.740833 2.46062,0.608541 0,0 0.0265,0 0.0265,0 0.29104,0.185209 0.84667,0.529167 1.37584,0.396875 0.37041,-0.07937 0.66145,-0.396875 0.76729,-0.846666 0.44979,0.238125 1.34937,0.582083 2.06375,0.132291 0.60854,-0.396875 0.5027,-1.190625 0.42333,-1.5875 0.29104,-0.105833 0.87312,-0.396875 1.16417,-0.873125 0.1852,-0.3175 0.21166,-0.661458 0.0794,-1.031875 -0.15875,-0.396875 -0.37042,-0.661458 -0.71437,-0.767291 z m -6.50875,6.879166 c -0.44979,-0.291041 -1.08479,-0.238125 -1.402295,-0.211666 -0.07938,-0.396875 -0.343958,-1.137709 -1.058333,-1.190625 -0.846667,-0.05292 -1.481667,0.714375 -1.799167,1.137708 -0.291042,-0.343958 -0.661458,-0.47625 -1.031875,-0.370417 -0.529167,0.15875 -0.873125,0.740834 -1.058333,1.031875 0,0 0,0.02646 0,0.02646 -0.15875,-0.05292 -2.090209,0.502708 -1.931459,1.799166 0.15875,1.296459 2.116667,1.217084 2.275417,1.11125 0,0 0,0 0.02646,0.02646 0.238125,0.238125 0.714375,0.687916 1.27,0.687916 0.396875,0 0.740834,-0.264583 0.926042,-0.661458 0.396875,0.3175 1.190625,0.846667 1.984375,0.555625 0.661458,-0.264583 0.740828,-1.058333 0.740828,-1.455208 0.3175,-0.05292 0.92605,-0.211667 1.32292,-0.608542 0.23813,-0.264583 0.34396,-0.608542 0.29104,-0.978958 -0.0794,-0.423334 -0.26458,-0.714375 -0.55562,-0.899584 z m -6.746878,-1.957916 c 0,0 0,0 0,0 0.370416,-0.05292 1.005416,-0.185209 1.322916,-0.635 0.238125,-0.3175 0.238125,-0.740834 0,-1.137709 0.47625,-0.132291 1.402292,-0.47625 1.613959,-1.296458 0.185208,-0.687917 -0.423334,-1.217083 -0.740834,-1.455208 0.132292,-0.291042 0.396875,-0.873125 0.264584,-1.42875 -0.07937,-0.370417 -0.291042,-0.635 -0.635,-0.820209 -0.343959,-0.185208 -0.687917,-0.211666 -1.005417,-0.07937 -0.502708,0.211667 -0.846667,0.740834 -1.005417,1.005417 -0.370416,-0.15875 -1.137708,-0.396875 -1.5875,0.15875 -0.529166,0.635 -0.317499,1.613958 -0.132291,2.116667 -0.449792,0.02646 -0.767292,0.264583 -0.899583,0.635 -0.185209,0.529166 0.07937,1.137708 0.211666,1.481666 0,0 0,0.02646 0,0.02646 -0.132291,0.105833 -0.820208,1.984375 0.3175,2.619375 1.164167,0.635 2.248958,-1.005417 2.275417,-1.190625 z M 14.289229,13.738124 c 0.02646,0.105833 0.15875,0.132291 0.238125,0.05292 0.211667,-0.238125 0.635,-0.714375 1.031875,-1.349375 0.396875,-0.635 0.820208,-1.481666 1.058333,-2.434166 0.238125,-0.9525 0.238125,-1.905 0.15875,-2.672292 -0.07937,-0.767292 -0.211666,-1.375833 -0.3175,-1.693333 -0.02646,-0.105834 -0.15875,-0.132292 -0.238125,-0.05292 -0.211666,0.238125 -0.635,0.714375 -1.031875,1.349375 C 14.791937,7.599791 14.368604,8.42 14.130479,9.3725 c -0.238125,0.9525 -0.238125,1.905 -0.15875,2.672291 0.07937,0.767292 0.238125,1.375834 0.3175,1.693333 z M 9.0504793,26.782082 c 0.661458,-0.291042 1.4287497,-0.714375 2.1166667,-1.349375 0.687916,-0.635 1.190625,-1.375834 1.534583,-2.010834 0.343958,-0.661458 0.555625,-1.217083 0.661458,-1.508125 0.02646,-0.07937 -0.05292,-0.185208 -0.15875,-0.185208 -0.291041,0.05292 -0.873125,0.211667 -1.534583,0.502708 -0.661458,0.291042 -1.42875,0.714375 -2.1166667,1.349375 -0.687916,0.635 -1.190625,1.375834 -1.534583,2.010834 -0.343958,0.661458 -0.555625,1.217083 -0.661458,1.508125 -0.02646,0.07937 0.05292,0.185208 0.15875,0.185208 0.291041,-0.05292 0.873125,-0.211667 1.534583,-0.502708 z m -0.582083,16.113124 c 0.02646,0.105834 0.185208,0.132292 0.238125,0.05292 0.211666,-0.264583 0.608541,-0.79375 1.005416,-1.508125 0.3968747,-0.714375 0.7672917,-1.613958 0.9524997,-2.645833 0.185209,-1.031875 0.132292,-2.010833 0,-2.804583 -0.132291,-0.820209 -0.3175,-1.42875 -0.423333,-1.772709 -0.02646,-0.105833 -0.185208,-0.132291 -0.238125,-0.05292 -0.2116667,0.264583 -0.6085417,0.79375 -1.0054167,1.508125 -0.396875,0.714375 -0.767291,1.613958 -0.9525,2.645833 -0.185208,1.031875 -0.132291,2.010833 0,2.804583 0.105834,0.820208 0.291042,1.455208 0.423334,1.772709 z m -1.931459,-8.228541 c 0,0.105833 0.105834,0.185208 0.211667,0.132292 0.291042,-0.15875 0.820208,-0.47625 1.42875,-0.9525 0.608542,-0.502709 1.243542,-1.164167 1.772708,-2.010834 0.5291667,-0.846666 0.8202087,-1.74625 0.9789587,-2.513541 0.185208,-0.767292 0.211666,-1.402292 0.238125,-1.719792 0,-0.105833 -0.105834,-0.185208 -0.211667,-0.132292 -0.291042,0.15875 -0.820208,0.47625 -1.4287497,0.9525 -0.608542,0.502709 -1.243542,1.164167 -1.772708,2.010834 -0.529167,0.846666 -0.820209,1.74625 -0.978959,2.513541 -0.185208,0.767292 -0.211666,1.402292 -0.238125,1.719792 z m -1.11125,-9.472083 c 0.370417,0.635 0.740834,1.11125 0.926042,1.349375 0.05292,0.07937 0.185208,0.05292 0.211667,-0.05292 0.105833,-0.291042 0.264583,-0.873125 0.370416,-1.613958 0.105834,-0.740834 0.132292,-1.640417 -0.02646,-2.566459 -0.185208,-0.926041 -0.529167,-1.74625 -0.899583,-2.38125 -0.370417,-0.635 -0.7408336,-1.11125 -0.9260416,-1.349375 -0.05292,-0.07937 -0.185208,-0.05292 -0.211667,0.05292 -0.105833,0.291042 -0.264583,0.873125 -0.370416,1.613958 -0.105834,0.740834 -0.132292,1.640417 0.02646,2.566459 0.185208,0.899583 0.555625,1.719791 0.8995826,2.38125 z M 20.903812,8.155415 c 0.608542,0 2.407708,-0.05292 4.153957,-0.873125 1.74625,-0.820208 2.989792,-2.169583 3.360209,-2.645833 0.05292,-0.07937 0,-0.185208 -0.07937,-0.185208 -0.608542,0 -2.407709,0.05292 -4.153959,0.873125 -1.746248,0.820208 -2.963332,2.169583 -3.360207,2.672291 -0.05292,0.05292 -0.02646,0.15875 0.07937,0.15875 z M 9.2621463,21.014165 c 0.291041,0.02646 0.8731247,0.07937 1.6139577,0.02646 0.714375,-0.05292 1.5875,-0.211666 2.407708,-0.608541 0.846667,-0.370417 1.534584,-0.899584 2.06375,-1.402292 0.529167,-0.502708 0.899584,-0.978958 1.084792,-1.217083 0.05292,-0.07937 0,-0.211667 -0.07938,-0.211667 -0.291042,-0.02646 -0.873125,-0.07937 -1.613958,-0.02646 -0.714375,0.05292 -1.5875,0.211666 -2.407709,0.608541 -0.846666,0.370417 -1.534583,0.899584 -2.06375,1.402292 -0.5291657,0.502708 -0.8995827,0.978958 -1.0847907,1.217083 -0.07937,0.07938 -0.02646,0.211667 0.07937,0.211667 z m -1.217084,0.15875 c 0.05292,0.07937 0.185209,0.07937 0.238125,0 0.15875,-0.264583 0.423334,-0.79375 0.661459,-1.508125 0.238125,-0.687917 0.423333,-1.561042 0.423333,-2.513542 0,-0.9525 -0.211667,-1.799166 -0.449792,-2.513541 -0.264583,-0.687917 -0.555625,-1.217083 -0.687916,-1.481667 -0.05292,-0.07937 -0.185209,-0.07937 -0.238125,0 -0.15875,0.264584 -0.423334,0.79375 -0.661459,1.508125 -0.238125,0.687917 -0.423333,1.561042 -0.423333,2.513542 0,0.9525 0.211667,1.799166 0.449792,2.513541 0.264583,0.661459 0.529166,1.190625 0.687916,1.481667 z m 5.1858337,-5.132917 c 0.291041,0.07937 0.873125,0.238125 1.5875,0.3175 0.740833,0.07938 1.613958,0.07938 2.513541,-0.132291 0.899584,-0.211667 1.693334,-0.608542 2.328334,-1.005417 0.608541,-0.396875 1.058333,-0.79375 1.296458,-1.005416 0.07937,-0.05292 0.02646,-0.211667 -0.05292,-0.238125 -0.291041,-0.07937 -0.873125,-0.238125 -1.5875,-0.3175 -0.740833,-0.07937 -1.613958,-0.07937 -2.513541,0.132291 -0.899584,0.211667 -1.693334,0.608542 -2.328334,1.005417 -0.608541,0.396875 -1.058333,0.79375 -1.296458,1.005416 -0.05292,0.07937 -0.02646,0.211667 0.05292,0.238125 z m 5.000625,-6.2706237 c 0.238125,-0.185209 0.687916,-0.5820843 1.137708,-1.1641673 0.47625,-0.555625 0.9525,-1.296458 1.27,-2.169583 0.3175,-0.873125 0.449792,-1.772709 0.47625,-2.513542 0.02646,-0.740833 -0.05292,-1.349375 -0.07937,-1.640417 -0.02646,-0.07937 -0.132292,-0.132291 -0.211667,-0.07937 -0.238125,0.185209 -0.687916,0.582084 -1.137708,1.164167 -0.47625,0.555625 -0.9525,1.296458 -1.27,2.169583 -0.3175,0.873125 -0.449792,1.772709 -0.47625,2.513542 -0.02646,0.740833 0.05292,1.349375 0.07937,1.6404173 0,0.07937 0.132292,0.132291 0.211667,0.07937 z m -7.249584,7.2495827 c 0.02646,0.07937 0.15875,0.105833 0.238125,0.02646 0.185209,-0.238125 0.529167,-0.740833 0.846667,-1.42875 0.3175,-0.661458 0.635,-1.508125 0.767292,-2.460625 0.132291,-0.9525 0.02646,-1.852083 -0.105834,-2.592916 -0.15875,-0.7408337 -0.343958,-1.296459 -0.47625,-1.5875 -0.02646,-0.07937 -0.15875,-0.105834 -0.238125,-0.02646 -0.185208,0.238125 -0.529166,0.7408343 -0.846666,1.42875 -0.3175,0.661459 -0.635,1.508125 -0.767292,2.460625 -0.132292,0.9525 -0.02646,1.852083 0.105833,2.592917 0.15875,0.714375 0.343959,1.296458 0.47625,1.587499 z m 16.986249,43.973749 v 0 h -0.291042 v -4.048125 c 0,-0.132291 -0.105833,-0.238125 -0.238125,-0.238125 h -0.185208 c -0.07937,0 -0.15875,0.05292 -0.185208,0.105834 -0.343959,0.555625 -0.846667,1.058333 -1.455209,1.481666 -0.105833,0.07937 -0.132291,0.211667 -0.05292,0.3175 l 0.15875,0.264584 c 0.02646,0.05292 0.07938,0.07937 0.15875,0.105833 0.05292,0 0.132291,0 0.185208,-0.02646 0.185208,-0.132292 0.370417,-0.264584 0.555625,-0.396875 v 2.434166 h -0.423333 c -0.185209,0 -0.3175,0.132292 -0.3175,0.3175 v 0.15875 c 0,0.185209 0.132291,0.3175 0.343958,0.3175 l 0.9525,-0.02646 0.899583,0.02646 c 0.185209,0 0.3175,-0.132291 0.3175,-0.3175 v -0.15875 c -0.07937,-0.185208 -0.211666,-0.3175 -0.423333,-0.3175 z m 4.101042,-4.074583 c -0.05292,-0.07937 -0.105834,-0.132292 -0.211667,-0.132292 h -2.778125 c -0.132292,0 -0.238125,0.105834 -0.238125,0.238125 v 1.190625 c 0,0.185209 0.132292,0.3175 0.3175,0.3175 h 0.15875 c 0.185208,0 0.3175,-0.132291 0.3175,-0.3175 v -0.343958 h 1.508125 c -0.502708,1.084792 -1.27,2.354792 -1.852083,3.254375 -0.02646,0.05292 -0.02646,0.07937 -0.02646,0.132292 v 0.185208 c 0,0.07937 0.05292,0.15875 0.132292,0.185208 l 0.396875,0.211667 c 0.02646,0.02646 0.07937,0.02646 0.105833,0.02646 0.02646,0 0.05292,0 0.07937,0 l 0.15875,-0.05292 c 0.05292,-0.02646 0.105834,-0.05292 0.132292,-0.105834 0.423333,-0.820208 1.481667,-2.910416 1.984375,-4.259791 0.02646,-0.05292 0.02646,-0.132292 0,-0.185209 z m 2.407708,1.375833 c -0.211667,0 -0.423333,0.02646 -0.582083,0.07937 l 0.02646,-0.423333 c 0.291042,0 0.661458,0 0.899583,-0.02646 0.740834,-0.02646 1.190625,-0.423334 1.322917,-1.190625 0.02646,-0.105834 -0.05292,-0.211667 -0.15875,-0.264584 l -0.211667,-0.07937 c -0.105833,-0.02646 -0.238125,0 -0.291041,0.105834 -0.15875,0.3175 -0.15875,0.3175 -0.582084,0.343958 -0.3175,0.02646 -0.873125,0.02646 -1.243541,0.02646 h -0.291042 c -0.132292,0 -0.238125,0.105834 -0.238125,0.238125 v 0.05292 l -0.185208,2.090208 c 0,0.05292 0.02646,0.132292 0.05292,0.185209 0.05292,0.05292 0.105834,0.07937 0.15875,0.07937 h 0.370417 c 0.07937,0 0.132292,-0.02646 0.185208,-0.07937 l 0.05292,-0.07937 c 0.07937,-0.132292 0.264583,-0.211667 0.582083,-0.211667 0.3175,0 0.635,0.105833 0.635,0.846667 0,1.005416 -0.396875,1.137708 -0.820208,1.137708 -0.185208,0 -0.3175,-0.02646 -0.396875,-0.07937 0.105833,-0.132292 0.15875,-0.264583 0.15875,-0.423333 0,-0.423334 -0.238125,-0.687917 -0.635,-0.687917 -0.396875,0 -0.661458,0.3175 -0.661458,0.767292 0,0.714375 0.661458,1.217083 1.561041,1.217083 1.137709,0 1.957917,-0.79375 1.957917,-1.931458 0,-1.058334 -0.635,-1.693334 -1.666875,-1.693334 z m 4.365625,0 c -0.211667,0 -0.423333,0.02646 -0.582083,0.07937 l 0.02646,-0.423333 c 0.291042,0 0.661458,0 0.899583,-0.02646 0.740834,-0.02646 1.190625,-0.423334 1.322917,-1.190625 0.02646,-0.105834 -0.05292,-0.211667 -0.15875,-0.264584 l -0.211667,-0.07937 c -0.105833,-0.02646 -0.238125,0 -0.291041,0.105834 -0.15875,0.3175 -0.15875,0.3175 -0.582084,0.343958 -0.3175,0.02646 -0.873125,0.02646 -1.243541,0.02646 h -0.291042 c -0.132292,0 -0.238125,0.105834 -0.238125,0.238125 v 0.05292 l -0.185208,2.090208 c 0,0.05292 0.02646,0.132292 0.05292,0.185209 0.05292,0.05292 0.105834,0.07937 0.15875,0.07937 h 0.370417 c 0.07937,0 0.132292,-0.02646 0.185208,-0.105834 l 0.05292,-0.07937 c 0.07937,-0.132291 0.264583,-0.211666 0.582083,-0.211666 0.3175,0 0.635,0.105833 0.635,0.846666 0,1.005417 -0.396875,1.137709 -0.820208,1.137709 -0.185208,0 -0.3175,-0.02646 -0.396875,-0.07937 0.105833,-0.132292 0.15875,-0.264584 0.15875,-0.423334 0,-0.423333 -0.238125,-0.687916 -0.635,-0.687916 -0.396875,0 -0.661458,0.3175 -0.661458,0.767291 0,0.714375 0.661458,1.217084 1.561041,1.217084 1.137709,0 1.957917,-0.79375 1.957917,-1.931459 0,-1.031875 -0.608542,-1.666875 -1.666875,-1.666875 z"
       id="path116"
       style="fill:#000000;fill-opacity:1;stroke-width:0.264583" />
  </g>
</svg>
